<svg width="24" height="25" viewBox="0 0 24 25" fill="none" xmlns="http://www.w3.org/2000/svg">
<path d="M22.341 11.3245L11.9899 0.705856C11.8607 0.574006 11.6858 0.5 11.5035 0.5C11.3211 0.5 11.1462 0.574006 11.017 0.705856L0.665932 11.3245C0.55288 11.46 0.493806 11.6342 0.500515 11.8123C0.507223 11.9905 0.579219 12.1595 0.702117 12.2856C0.825014 12.4117 0.98976 12.4855 1.16343 12.4924C1.33711 12.4993 1.50692 12.4387 1.63893 12.3227L11.5 2.20663L21.3611 12.3298C21.4931 12.4458 21.6629 12.5064 21.8366 12.4995C22.0102 12.4926 22.175 12.4187 22.2979 12.2927C22.4208 12.1666 22.4928 11.9976 22.4995 11.8194C22.5062 11.6412 22.4471 11.467 22.3341 11.3316L22.341 11.3245Z" fill="#8383F5" stroke="#8383F5"/>
<path d="M17.3333 23.0222H14.4167V15.633H8.58333V23.0222H5.66667V12.6773L4.5 14.1552V23.0222C4.5 23.4141 4.62292 23.79 4.84171 24.0672C5.0605 24.3443 5.35725 24.5 5.66667 24.5H9.75V17.1108H13.25V24.5H17.3333C17.6428 24.5 17.9395 24.3443 18.1583 24.0672C18.3771 23.79 18.5 23.4141 18.5 23.0222V13.9778L17.3333 12.5V23.0222Z" fill="#8383F5" stroke="#8383F5"/>
</svg>
