<svg width="27" height="15" viewBox="0 0 27 15" fill="none" xmlns="http://www.w3.org/2000/svg">
<path d="M1 6.36377C0.447715 6.36377 4.82823e-08 6.81148 0 7.36377C-4.82823e-08 7.91605 0.447715 8.36377 1 8.36377L1 7.36377L1 6.36377ZM26.7071 8.07088C27.0976 7.68035 27.0976 7.04719 26.7071 6.65667L20.3431 0.292703C19.9526 -0.097821 19.3195 -0.0978211 18.9289 0.292703C18.5384 0.683228 18.5384 1.31639 18.9289 1.70692L24.5858 7.36377L18.9289 13.0206C18.5384 13.4111 18.5384 14.0443 18.9289 14.4348C19.3195 14.8254 19.9526 14.8254 20.3431 14.4348L26.7071 8.07088ZM1 7.36377L1 8.36377L26 8.36377L26 7.36377L26 6.36377L1 6.36377L1 7.36377Z" fill="#8383F5"/>
</svg>
