<svg width="39" height="39" viewBox="0 0 39 39" fill="none" xmlns="http://www.w3.org/2000/svg">
<path d="M19.5 0C8.72998 0 0 8.7312 0 19.5C0 30.27 8.72998 39 19.5 39C30.2688 39 39 30.27 39 19.5C39 8.7312 30.2688 0 19.5 0ZM19.5 35.3438C10.764 35.3438 3.65625 28.2359 3.65625 19.5C3.65625 10.7641 10.7641 3.65625 19.5 3.65625C28.2359 3.65625 35.3438 10.7641 35.3438 19.5C35.3438 28.2359 28.236 35.3438 19.5 35.3438Z" fill="#8F949A"/>
<path d="M19.5 6.09375C12.1077 6.09375 6.09375 12.1077 6.09375 19.5C6.09375 26.8923 12.1077 32.9062 19.5 32.9062C26.891 32.9062 32.9062 26.8923 32.9062 19.5C32.9062 12.1077 26.891 6.09375 19.5 6.09375ZM19.5 31.6875C12.7802 31.6875 7.3125 26.2198 7.3125 19.5C7.3125 12.7802 12.7802 7.3125 19.5 7.3125C26.2198 7.3125 31.6875 12.7802 31.6875 19.5C31.6875 26.2198 26.2198 31.6875 19.5 31.6875Z" fill="#8F949A"/>
<path d="M14.9989 14.5238L10.3031 22.6981C9.81333 23.5506 10.4287 24.6138 11.4119 24.6138H20.8036C21.7868 24.6138 22.4021 23.5506 21.9124 22.6981L17.2165 14.5238C16.725 13.6681 15.4905 13.6681 14.9989 14.5238Z" fill="#8F949A"/>
<path d="M23.908 23.3393V15.1554C23.908 14.4491 24.4805 13.8766 25.1868 13.8766H26.7213C27.4275 13.8766 28 14.4472 28 15.1535V23.3419C28 24.0481 27.4275 24.618 26.7213 24.618H25.1868C24.4805 24.618 23.908 24.0455 23.908 23.3393Z" fill="#8F949A"/>
</svg>
