<svg width="31" height="26" viewBox="0 0 31 26" fill="none" xmlns="http://www.w3.org/2000/svg">
<path d="M29.2719 0C30.2165 0 30.9291 0.828583 30.5479 2.36975L25.9244 24.1615C25.6013 25.7109 24.665 26.0838 23.3724 25.3629L12.3439 17.218C12.3012 17.1873 12.2663 17.1468 12.2423 17.1C12.2183 17.0532 12.2057 17.0013 12.2057 16.9487C12.2057 16.896 12.2183 16.8441 12.2423 16.7973C12.2663 16.7505 12.3012 16.7101 12.3439 16.6794L25.0793 5.17864C25.6593 4.66492 24.955 4.41635 24.1927 4.88035L8.20931 14.9642C8.16083 14.9958 8.1058 15.016 8.04837 15.0232C7.99095 15.0303 7.93264 15.0243 7.87788 15.0056L1.09178 12.8596C-0.41624 12.4205 -0.41624 11.3847 1.4315 10.6473L28.5842 0.174002C28.7995 0.0706956 29.0333 0.0115328 29.2719 0Z" fill="white"/>
</svg>
