<svg width="34" height="25" viewBox="0 0 34 25" fill="none" xmlns="http://www.w3.org/2000/svg">
<path d="M33.0805 2.05067C32.7264 1.87832 32.5739 2.20676 32.3669 2.37348C32.296 2.42727 32.236 2.49714 32.1763 2.56165C31.6587 3.11061 31.0539 3.47122 30.2639 3.42815C29.1091 3.36364 28.1227 3.72416 27.2511 4.60129C27.0659 3.51964 26.4503 2.87357 25.5133 2.45944C25.0229 2.2442 24.5272 2.02878 24.1839 1.5606C23.9442 1.22706 23.8788 0.855644 23.759 0.489675C23.6828 0.269161 23.6063 0.0430233 23.3502 0.00523111C23.0724 -0.0378344 22.9633 0.193489 22.8545 0.38746C22.4186 1.17864 22.2497 2.05041 22.2662 2.9329C22.3044 4.91892 23.1488 6.50092 24.8269 7.6259C25.0175 7.75509 25.0665 7.8842 25.0067 8.07255C24.8923 8.46014 24.7561 8.83674 24.6362 9.22433C24.56 9.47191 24.4453 9.5257 24.1785 9.41813C23.2578 9.03616 22.4622 8.47086 21.7594 7.78752C20.5662 6.6411 19.4876 5.37638 18.1418 4.38605C17.8304 4.15734 17.5106 3.94013 17.183 3.73488C15.81 2.41101 17.3628 1.32374 17.7223 1.19472C18.0982 1.06007 17.8531 0.597339 16.638 0.6027C15.4231 0.608061 14.3116 1.01165 12.8952 1.54988C12.6881 1.63073 12.4703 1.68988 12.2468 1.73813C10.9611 1.49591 9.62629 1.44213 8.2315 1.59813C5.6054 1.8886 3.50804 3.12115 1.96625 5.22548C0.113964 7.75536 -0.322023 10.6291 0.211942 13.6268C0.773078 16.7858 2.39657 19.4014 4.89186 21.4466C7.47972 23.5667 10.4599 24.6056 13.8594 24.4064C15.9242 24.2881 18.2234 24.0137 20.8167 21.8339C21.4705 22.1567 22.1569 22.286 23.2956 22.3829C24.1728 22.4637 25.0173 22.3398 25.6711 22.2054C26.6954 21.9902 26.6246 21.0483 26.254 20.8762C23.2523 19.4878 23.9112 20.0529 23.312 19.5954C24.8374 17.8033 27.1367 15.9412 28.0356 9.90811C28.1064 9.42929 28.0463 9.12792 28.0356 8.74033C28.0302 8.50373 28.0845 8.41215 28.357 8.38517C29.1088 8.29895 29.8388 8.0947 30.509 7.72855C32.4539 6.67371 33.2385 4.9408 33.4238 2.86346C33.451 2.54601 33.4184 2.21766 33.0805 2.05093V2.05067ZM16.1315 20.7466C13.2221 18.4758 11.8111 17.7275 11.2282 17.7598C10.6834 17.7922 10.7814 18.4111 10.9012 18.8147C11.0265 19.213 11.1901 19.4874 11.4188 19.8372C11.5768 20.0687 11.6859 20.4129 11.2609 20.6715C10.3239 21.2472 8.69484 20.4777 8.61846 20.4399C6.72254 19.3313 5.13711 17.8675 4.02015 15.8656C2.94151 13.9387 2.31488 11.8723 2.2115 9.66571C2.18424 9.13302 2.34231 8.94441 2.8761 8.84773C3.57885 8.71844 4.30346 8.69146 5.0063 8.79368C7.97545 9.22433 10.5033 10.5428 12.6227 12.6309C13.8322 13.8201 14.7475 15.2411 15.6902 16.6295C16.6926 18.1041 17.7714 19.5088 19.1443 20.6605C19.6292 21.0641 20.0159 21.3709 20.3865 21.5971C19.2695 21.7207 17.4062 21.7477 16.1315 20.7466ZM17.5387 11.7364C17.5848 11.5508 17.7529 11.4149 17.9566 11.4149C18.0068 11.415 18.0566 11.4241 18.1036 11.4417C18.1636 11.4633 18.218 11.4956 18.2617 11.5439C18.3379 11.6194 18.3815 11.727 18.3815 11.8399C18.3815 12.0768 18.1909 12.265 17.9512 12.265C17.85 12.266 17.7519 12.2306 17.6749 12.1655C17.5978 12.1003 17.5471 12.0098 17.5319 11.9105C17.5224 11.8526 17.5247 11.7934 17.5387 11.7364ZM21.7169 14.1019C21.4863 14.1894 21.2567 14.2582 21.0348 14.2671C20.6207 14.2886 20.1686 14.1218 19.9235 13.9172C19.5422 13.5998 19.2698 13.4223 19.1553 12.8678C19.1063 12.6309 19.1335 12.265 19.1771 12.0551C19.2752 11.603 19.1661 11.3124 18.8449 11.0487C18.5834 10.8335 18.2509 10.7743 17.886 10.7743C17.7498 10.7743 17.6245 10.7152 17.5319 10.6668C17.3793 10.5915 17.254 10.4031 17.3739 10.1716C17.4121 10.0964 17.5973 9.91329 17.641 9.88112C18.1366 9.6012 18.7088 9.69269 19.2371 9.90257C19.7275 10.1017 20.098 10.4676 20.6319 10.9842C21.1767 11.6084 21.2747 11.7808 21.5854 12.2489C21.8307 12.6148 22.054 12.9917 22.2065 13.4221C22.2842 13.6472 22.2128 13.8387 21.9993 13.9738C21.9125 14.0287 21.8127 14.0655 21.7169 14.1019Z" fill="white"/>
</svg>
