<svg width="26" height="32" viewBox="0 0 26 32" fill="none" xmlns="http://www.w3.org/2000/svg">
<path fill-rule="evenodd" clip-rule="evenodd" d="M22.4981 21.5231C21.4416 27.0887 16.1734 30.8801 10.5158 30.0496C4.70811 29.1971 0.714446 23.6397 1.54373 17.9903C1.65457 17.2352 1.86256 15.7241 3.36853 13.3442C4.2698 11.9199 4.83531 11.025 5.2036 10.1852C5.40598 9.72362 5.77443 8.99718 6.32229 10.3494C6.64534 11.1467 6.50702 12.205 6.50702 12.205C6.50702 12.205 8.29043 11.2103 9.71736 9.01931C11.8092 5.80738 10.8459 3.56243 10.6236 2.06703C10.5466 1.5497 10.5834 0.645657 11.5545 1.17516C12.544 1.71479 15.0257 4.05691 16.1719 6.30985C17.8078 9.52524 18.1311 12.4257 18.1311 12.4257C18.1311 12.4257 18.9122 11.7027 19.2724 10.879C19.6792 9.94897 19.824 8.98994 20.5223 10.1484C21.1865 11.2501 22.116 13.2736 22.534 15.129C23.2929 18.4984 22.4981 21.5231 22.4981 21.5231Z" fill="url(#paint0_linear_2_1113)"/>
<path fill-rule="evenodd" clip-rule="evenodd" d="M10.5161 30.0498C6.50012 29.4603 3.72251 25.7269 4.31202 21.7109C4.66772 19.2878 5.86018 17.9599 8.18536 16.2632C9.67413 15.1768 11.1224 13.7866 11.7968 12.7942C11.9296 12.5989 12.3224 11.5369 13.0282 12.9514C13.3984 13.6933 13.9581 14.9981 14.2796 16.0888C14.834 17.9693 14.7774 19.7045 14.7774 19.7045C14.7774 19.7045 15.6429 19.3521 16.3661 18.2235C16.5993 17.8598 17.1715 16.4374 17.9496 18.0578C18.5205 19.2469 19.2374 21.3395 18.855 23.8457C18.2654 27.8617 14.532 30.6393 10.5161 30.0498Z" fill="#525298"/>
<path fill-rule="evenodd" clip-rule="evenodd" d="M11.7942 22.1242C12.829 22.2761 12.5477 24.1923 13.4866 26.9438C14.1118 28.776 12.5436 30.3481 10.6283 30.0669C8.71297 29.7858 7.9476 28.0873 8.22875 26.172C8.50988 24.2568 10.7594 21.9723 11.7942 22.1242Z" fill="#A8A8F8"/>
<defs>
<linearGradient id="paint0_linear_2_1113" x1="10.5285" y1="30.073" x2="14.7128" y2="1.56747" gradientUnits="userSpaceOnUse">
<stop stop-color="#373769"/>
<stop offset="1" stop-color="#525299"/>
</linearGradient>
</defs>
</svg>
