<svg width="32" height="31" viewBox="0 0 32 31" fill="none" xmlns="http://www.w3.org/2000/svg">
<path d="M12.2497 19.5453L22.7942 11.7521C23.3112 11.37 24.05 11.519 24.2964 12.1125C25.5928 15.2422 25.0136 19.0034 22.4342 21.5857C19.855 24.168 16.2662 24.7344 12.9859 23.4446L9.40254 25.1057C14.5422 28.6228 20.7833 27.753 24.6834 23.8456C27.7769 20.7484 28.735 16.5266 27.8392 12.7195L27.8472 12.7276C26.5481 7.13472 28.1667 4.89919 31.4821 0.327877C31.5605 0.219488 31.639 0.111099 31.7175 0L27.3546 4.36808V4.35453L12.2471 19.548" fill="white"/>
<path d="M10.0736 21.4394C6.38462 17.9113 7.02064 12.4512 10.1683 9.30254C12.4958 6.97215 16.3093 6.02104 19.6383 7.41926L23.2136 5.76632C22.5695 5.30025 21.7439 4.79895 20.7967 4.44668C16.515 2.68266 11.3889 3.5606 7.90837 7.0426C4.56044 10.3945 3.50762 15.5484 5.31556 19.9464C6.66609 23.2332 4.45218 25.5581 2.22203 27.9048C1.43173 28.7367 0.638729 29.5686 0 30.4492L10.0708 21.4421" fill="white"/>
</svg>
