<svg width="60" height="60" viewBox="0 0 60 60" fill="none" xmlns="http://www.w3.org/2000/svg">
<path d="M41.931 31.2607H17.7903C16.8196 31.2607 16.0325 32.0478 16.0325 33.0186C16.0325 33.9893 16.8196 34.7764 17.7903 34.7764H41.931C42.9017 34.7764 43.6888 33.9893 43.6888 33.0186C43.6888 32.0478 42.9017 31.2607 41.931 31.2607Z" fill="white"/>
<path d="M41.9309 24.3652H17.7903C16.8195 24.3652 16.0325 25.1523 16.0325 26.123C16.0325 27.0938 16.8195 27.8809 17.7903 27.8809H41.9309C42.9017 27.8809 43.6887 27.0938 43.6887 26.123C43.6887 25.1523 42.9017 24.3652 41.9309 24.3652Z" fill="white"/>
<path d="M41.9309 17.4707H17.7903C16.8195 17.4707 16.0325 18.2577 16.0325 19.2285C16.0325 20.1993 16.8195 20.9863 17.7903 20.9863H41.9309C42.9017 20.9863 43.6887 20.1993 43.6887 19.2285C43.6887 18.2577 42.9017 17.4707 41.9309 17.4707Z" fill="white"/>
<path d="M41.9311 10.5752H17.7904C16.8197 10.5752 16.0326 11.3622 16.0326 12.333C16.0326 13.3038 16.8197 14.0908 17.7904 14.0908H41.9311C42.9018 14.0908 43.6889 13.3038 43.6889 12.333C43.6889 11.3622 42.9018 10.5752 41.9311 10.5752Z" fill="white"/>
<path d="M41.9309 38.5732H17.7903C16.8195 38.5732 16.0325 39.3602 16.0325 40.3311C16.0325 41.3017 16.8195 42.0889 17.7903 42.0889H41.9309C42.9017 42.0889 43.6887 41.3017 43.6887 40.3311C43.6887 39.3602 42.9017 38.5732 41.9309 38.5732Z" fill="white"/>
<path d="M41.9309 45.8857H17.7903C16.8195 45.8857 16.0325 46.6728 16.0325 47.6436C16.0325 48.6143 16.8195 49.4014 17.7903 49.4014H41.9309C42.9017 49.4014 43.6887 48.6143 43.6887 47.6436C43.6887 46.6728 42.9017 45.8857 41.9309 45.8857Z" fill="white"/>
<path d="M56.1492 54.3292H52.6372V8.11878H56.1492V54.3292ZM49.1215 56.4844H10.5434V3.51562H49.1215V56.4844ZM7.02776 54.3292H3.51569V8.11878H7.02776V54.3292ZM57.9071 4.60316H52.6372V1.75781C52.6372 0.7875 51.8508 0 50.8793 0H8.78558C7.81526 0 7.02776 0.7875 7.02776 1.75781V4.60316H1.75787C0.787561 4.60316 6.10352e-05 5.39066 6.10352e-05 6.36097V56.087C6.10352e-05 57.0574 0.787561 57.8448 1.75787 57.8448H7.02776V58.2422C7.02776 59.2125 7.81526 60 8.78558 60H50.8793C51.8508 60 52.6372 59.2125 52.6372 58.2422V57.8448H57.9071C58.8774 57.8448 59.6649 57.0574 59.6649 56.087V6.36097C59.6649 5.39066 58.8774 4.60316 57.9071 4.60316Z" fill="white"/>
</svg>
