<svg width="77" height="87" viewBox="0 0 77 87" fill="none" xmlns="http://www.w3.org/2000/svg">
<path d="M38.5362 85.038L38.5362 22.7329" stroke="white" stroke-width="2.58416"/>
<path d="M37.6942 53.5477L56.2174 41.2466" stroke="white" stroke-width="2.58416"/>
<path d="M37.6942 68.993L56.2174 56.6919" stroke="white" stroke-width="2.58416"/>
<path d="M39.378 53.5477L20.8548 41.2466" stroke="white" stroke-width="2.58416"/>
<path d="M39.378 68.993L20.8548 56.6919" stroke="white" stroke-width="2.58416"/>
<circle cx="38.5361" cy="16.8392" r="15.5471" stroke="white" stroke-width="2.58416"/>
<circle cx="38.5362" cy="16.8392" r="5.44361" fill="#373769" stroke="white" stroke-width="2.58416"/>
<circle cx="59.5852" cy="37.0365" r="5.44361" fill="#373769" stroke="white" stroke-width="2.58416"/>
<circle cx="53.6532" cy="57.5628" r="5.44361" fill="#373769" stroke="white" stroke-width="2.58416"/>
<circle cx="70.2694" cy="63.4276" r="5.44361" fill="#373769" stroke="white" stroke-width="2.58416"/>
<circle cx="6.73569" cy="63.4276" r="5.44361" fill="#373769" stroke="white" stroke-width="2.58416"/>
<circle cx="6.73569" cy="6.73569" r="5.44361" transform="matrix(-1 0 0 1 24.2229 30.3008)" fill="#373769" stroke="white" stroke-width="2.58416"/>
<circle cx="6.73569" cy="6.73569" r="5.44361" transform="matrix(-1 0 0 1 30.0881 50.8271)" fill="#373769" stroke="white" stroke-width="2.58416"/>
<path d="M66.6945 68.0303L40.0275 85.7998L38.6086 86.6875C37.3515 85.8604 36.1381 85.0924 35.1886 84.5498C35.1835 84.5469 35.1781 84.5439 35.173 84.541L10.5216 68.0283L11.9591 65.8818L38.5402 83.6865L65.2609 65.8799L66.6945 68.0303Z" fill="white"/>
</svg>
