<svg width="17" height="16" viewBox="0 0 17 16" fill="none" xmlns="http://www.w3.org/2000/svg">
<path d="M7.1897 1.46924C7.54731 0.839233 8.32916 0.592646 8.98755 0.850098C9.29021 0.968531 9.54936 1.18605 9.71216 1.47314L9.77563 1.60107L11.1731 4.78662L14.8372 5.05811C15.5457 5.11048 16.1519 5.67742 16.1692 6.41943L16.1653 6.56982C16.1334 6.95542 15.9411 7.30223 15.6477 7.53857L12.884 9.76221L13.7297 13.0825C13.9324 13.8777 13.405 14.6178 12.6594 14.7876C12.2986 14.8697 11.9164 14.8131 11.594 14.6265L8.44946 12.8071L5.33228 14.6118H5.3313C4.6747 14.9915 3.80222 14.8116 3.37622 14.1548C3.16481 13.8287 3.09851 13.4293 3.20044 13.0503L3.68481 11.2476C3.92099 10.3695 4.55238 9.65246 5.38696 9.27393L5.72974 9.11768L5.23853 9.19873C4.26214 9.35839 3.25453 9.10579 2.48364 8.49561L1.28247 7.54443C0.658069 7.05018 0.564718 6.14305 1.10083 5.53857L1.20044 5.43701C1.4434 5.21284 1.75608 5.08034 2.08228 5.05615L5.72583 4.78662L7.12427 1.60107L7.1897 1.46924Z" stroke="white" stroke-width="1.5"/>
</svg>
