<svg width="26" height="24" viewBox="0 0 26 24" fill="none" xmlns="http://www.w3.org/2000/svg">
<path d="M5.24791 12.75H5.75V22.75H5.24791C4.65723 22.75 4.07234 22.6205 3.52663 22.369C2.98092 22.1174 2.48508 21.7487 2.06741 21.2838C1.64974 20.819 1.31842 20.2672 1.09238 19.6598C0.866342 19.0525 0.75 18.4016 0.75 17.7442C0.75277 16.4186 1.22788 15.1483 2.0711 14.2121C2.91432 13.2758 4.0568 12.75 5.24791 12.75Z" stroke="#8383F5" stroke-width="1.5" stroke-miterlimit="10"/>
<path d="M19.75 12.75H20.2521C21.445 12.75 22.5891 13.2768 23.4326 14.2145C24.2761 15.1521 24.75 16.4239 24.75 17.75C24.75 19.0761 24.2761 20.3479 23.4326 21.2855C22.5891 22.2232 21.445 22.75 20.2521 22.75H19.75V12.75Z" stroke="#8383F5" stroke-width="1.5" stroke-miterlimit="10"/>
<path d="M2.75 13.75V10.5057C2.75 7.92027 3.80319 5.4406 5.67822 3.61138C7.55325 1.78216 10.0968 0.753006 12.75 0.75C15.4032 0.753006 17.9467 1.78216 19.8218 3.61138C21.6968 5.4406 22.75 7.92027 22.75 10.5057V13.75" stroke="#8383F5" stroke-width="1.5" stroke-miterlimit="10"/>
</svg>
